<?xml version="1.0" standalone="no"?>
<!DOCTYPE svg PUBLIC "-//W3C//DTD SVG 20010904//EN"
 "http://www.w3.org/TR/2001/REC-SVG-20010904/DTD/svg10.dtd">
<svg version="1.0" xmlns="http://www.w3.org/2000/svg"
 width="2111.000000pt" height="1574.000000pt" viewBox="0 0 2111.000000 1574.000000"
 preserveAspectRatio="xMidYMid meet">
<metadata>
Created by potrace 1.15, written by Peter Selinger 2001-2017
</metadata>
<g transform="translate(0.000000,1574.000000) scale(0.100000,-0.100000)"
fill="#000000" stroke="none">
<path d="M10932 15724 l-22 -15 0 -950 c0 -522 -2 -949 -4 -949 -4 0 -418 220
-424 225 -2 2 69 6 158 10 119 6 165 11 176 22 17 17 19 84 2 101 -9 9 -79 12
-255 12 -275 0 -259 5 -269 -88 -8 -67 6 -95 68 -130 29 -17 85 -54 123 -82
39 -28 103 -68 144 -88 70 -34 82 -37 174 -39 55 -1 101 -4 103 -5 2 -2 6 -76
10 -163 13 -322 -9 -348 -346 -394 -110 -15 -176 -31 -275 -66 -71 -25 -138
-45 -148 -45 -17 0 -18 23 -16 442 1 414 0 443 -17 455 -10 7 -29 13 -42 13
-62 0 -79 -40 -63 -156 10 -82 0 -156 -27 -194 -10 -14 -38 -35 -63 -48 -42
-22 -51 -23 -176 -17 l-132 6 -17 -25 c-23 -36 -12 -74 24 -81 15 -3 43 -10
63 -15 20 -6 77 -10 127 -10 137 0 162 -19 162 -124 0 -39 -6 -60 -22 -81
l-21 -27 -112 7 c-94 6 -118 4 -144 -9 -37 -20 -39 -35 -8 -63 22 -20 49 -26
201 -42 78 -8 96 -23 96 -81 0 -38 -29 -75 -80 -100 -78 -39 -501 -322 -581
-388 -135 -114 -240 -244 -323 -402 -19 -36 -43 -74 -54 -83 -10 -9 -122 -68
-248 -131 -558 -278 -1032 -620 -1557 -1125 -59 -57 -110 -102 -112 -100 -2 2
-5 211 -6 464 -2 408 0 464 14 491 22 42 72 64 144 64 74 0 103 18 103 64 0
19 -6 38 -13 44 -7 7 -50 10 -101 9 -86 -2 -88 -2 -116 29 -22 26 -29 45 -34
100 -4 38 -2 102 4 142 12 87 1 121 -43 136 -21 8 -35 7 -55 -5 l-27 -15 0
-146 c0 -168 -6 -185 -86 -226 -42 -22 -51 -23 -167 -17 -88 5 -131 4 -152 -5
-34 -14 -36 -20 -16 -59 17 -32 54 -51 101 -51 19 0 80 -5 137 -12 124 -14
148 -30 148 -101 0 -54 -17 -105 -39 -116 -9 -5 -68 -8 -131 -6 -136 4 -160
-3 -160 -44 0 -39 12 -45 97 -47 93 -3 135 -17 172 -59 37 -42 45 -82 37 -182
-4 -43 -10 -168 -14 -278 -6 -186 -9 -204 -32 -250 -37 -73 -89 -98 -190 -91
-238 18 -265 18 -333 2 -137 -32 -172 -63 -277 -249 -158 -279 -198 -448 -162
-687 11 -74 25 -245 38 -473 l6 -118 32 6 c32 7 122 48 236 110 36 19 70 35
76 35 17 0 36 -50 41 -111 8 -86 -16 -154 -90 -249 -97 -127 -126 -170 -162
-240 -80 -158 -100 -308 -70 -526 28 -199 12 -355 -57 -564 -48 -147 -99 -260
-326 -726 -311 -637 -339 -704 -363 -865 -12 -83 -6 -228 10 -258 7 -12 12 -8
24 19 57 136 322 692 488 1025 203 410 405 788 557 1045 47 80 114 202 149
273 101 202 217 307 389 352 68 18 334 22 334 5 0 -6 -41 -54 -92 -108 -339
-360 -708 -884 -1035 -1472 -237 -426 -693 -1322 -700 -1375 -3 -22 -12 -48
-20 -57 -18 -20 -9 -38 17 -38 12 0 52 52 131 170 61 94 117 169 123 167 6 -2
11 -31 11 -68 1 -82 2 -86 21 -93 24 -9 72 21 100 64 36 55 73 161 81 231 6
59 6 59 -20 59 -20 0 -33 -10 -54 -42 -68 -106 -20 68 65 237 203 405 700
1063 1122 1485 145 145 322 295 399 338 l41 23 0 -38 c0 -21 9 -222 20 -448
11 -225 20 -448 20 -494 0 -99 16 -81 -210 -241 -498 -352 -937 -729 -1725
-1479 -525 -499 -740 -724 -994 -1041 -565 -704 -955 -1511 -1020 -2112 -17
-155 -8 -446 12 -398 13 30 107 331 157 500 172 583 422 989 1089 1765 567
660 961 1063 1496 1530 1863 1628 4155 2688 6915 3199 1238 229 2439 346 3975
387 482 13 1851 6 2002 -11 145 -16 224 -54 262 -127 28 -55 4 -168 -66 -307
-36 -72 -233 -421 -750 -1331 -739 -1301 -1160 -2082 -1672 -3105 -395 -791
-714 -1477 -961 -2067 l-64 -152 -45 -7 c-63 -10 -378 3 -540 21 -187 21 -346
46 -726 115 -968 174 -1239 210 -1585 210 -365 -1 -572 -57 -719 -196 -85 -80
-132 -166 -190 -351 -32 -102 -49 -140 -74 -166 -58 -62 -48 -63 -897 43 -804
100 -1078 123 -1450 123 -554 1 -937 -80 -1430 -301 -380 -170 -684 -256
-1420 -403 -217 -43 -548 -110 -735 -148 -401 -81 -729 -139 -1025 -181 -215
-30 -347 -56 -364 -70 -17 -16 201 -63 364 -79 369 -37 1109 -53 1430 -31 658
46 1198 155 1820 370 455 156 714 211 1135 241 206 14 667 6 905 -16 293 -27
989 -115 1560 -196 339 -49 482 -41 622 33 78 42 164 130 222 230 219 377 423
539 776 615 116 25 476 25 631 0 331 -52 749 -135 1385 -272 176 -38 342 -55
544 -55 269 0 408 20 700 104 204 58 281 70 425 69 206 -1 364 -64 522 -206
263 -236 490 -338 821 -368 167 -15 333 -2 644 51 493 84 728 110 987 110 145
0 163 2 151 15 -29 28 -177 106 -277 145 -185 73 -316 99 -929 185 -570 80
-746 163 -1018 479 -210 244 -488 309 -901 213 -83 -19 -296 -74 -475 -121
-178 -47 -325 -84 -327 -82 -7 6 82 165 142 253 37 54 191 285 344 513 756
1131 1450 2077 2176 2965 253 310 374 448 760 865 181 195 361 394 401 443
362 433 486 923 373 1472 -100 480 -332 764 -694 848 -102 23 -112 25 -550 57
-710 52 -1047 70 -1317 70 -192 0 -255 10 -289 46 -22 24 -24 34 -24 126 0 96
-1 102 -25 120 -16 11 -74 27 -155 42 -358 66 -687 179 -1125 388 -74 35 -152
79 -172 97 -67 59 -66 47 -88 686 -10 295 -24 367 -100 520 -92 184 -231 331
-460 484 -312 209 -673 340 -1240 450 -281 54 -449 81 -588 91 -462 36 -653
128 -836 403 -103 155 -192 218 -353 252 -65 14 -616 41 -968 47 -219 4 -220
5 -229 250 -4 86 -9 170 -12 187 -6 29 -5 31 23 31 112 0 232 54 411 185 108
79 124 94 133 129 14 51 2 93 -34 120 -27 20 -43 21 -256 24 -255 3 -261 2
-261 -62 0 -61 16 -66 201 -66 l164 -1 -35 -28 c-19 -16 -74 -51 -123 -77
-120 -65 -165 -100 -198 -153 -16 -25 -29 -41 -29 -35 0 5 -9 74 -19 154 -25
186 -45 387 -76 785 -14 176 -37 435 -50 575 -14 140 -29 295 -34 343 -11 110
-23 127 -95 127 -31 0 -61 -6 -74 -16z m663 -2674 c292 -14 748 -56 816 -76
130 -39 220 -109 300 -233 27 -41 47 -76 46 -78 -2 -1 -97 3 -212 8 -219 12
-624 6 -875 -11 -667 -47 -1340 -169 -2073 -377 -151 -42 -159 -44 -172 -26
-8 10 -11 21 -7 24 4 4 129 88 277 187 149 99 299 201 335 226 84 59 112 60
134 6 9 -22 16 -49 16 -60 0 -31 12 -24 55 31 22 28 74 80 115 116 195 169
411 244 750 262 226 12 253 12 495 1z m772 -630 c559 -17 1039 -63 1643 -156
456 -70 727 -128 930 -199 445 -156 758 -430 851 -747 7 -24 5 -28 -13 -28
-12 0 -116 31 -232 69 -772 253 -1570 397 -2501 452 -254 15 -976 15 -1250 0
-1042 -57 -1849 -194 -2602 -442 -582 -191 -1028 -402 -1538 -725 -169 -107
-209 -119 -374 -111 -68 3 -125 8 -128 11 -14 14 20 58 138 175 610 612 1397
1058 2408 1365 661 201 1349 312 2086 335 127 4 239 8 250 9 11 1 160 -3 332
-8z m1138 -759 c59 -33 110 -95 126 -154 7 -26 10 -100 7 -198 -3 -128 -7
-161 -21 -183 -25 -38 -40 -41 -131 -28 -131 19 -188 37 -214 68 -23 26 -24
33 -17 98 5 39 8 78 7 86 0 8 -2 74 -4 147 -3 123 -2 134 18 153 55 55 143 59
229 11z m-1548 3 c17 -24 19 -441 2 -478 -20 -42 -65 -56 -182 -56 -58 0 -117
4 -131 10 -45 17 -51 42 -52 230 0 96 -4 185 -7 196 -4 12 -3 33 2 47 17 45
54 60 165 68 137 9 187 5 203 -17z m-1873 -189 c21 -21 24 -51 30 -266 6 -219
1 -239 -75 -277 -59 -29 -249 -48 -289 -29 -26 13 -28 26 -20 147 1 25 0 105
-2 178 -3 83 0 141 6 154 19 36 60 59 152 83 107 28 176 31 198 10z m4937
-124 c36 -12 79 -31 94 -43 50 -39 53 -61 47 -329 l-5 -247 -31 18 c-17 11
-64 28 -103 39 -162 44 -168 56 -168 341 0 118 3 223 8 234 6 16 14 18 50 13
23 -3 72 -15 108 -26z m-1961 -325 c767 -57 1304 -150 1785 -311 263 -88 377
-137 875 -385 239 -119 498 -244 575 -279 354 -160 705 -286 1005 -361 134
-33 169 -45 188 -66 26 -30 28 -64 4 -93 -16 -21 -29 -22 -327 -31 -170 -6
-380 -15 -465 -20 -285 -17 -298 -13 -770 250 -419 233 -597 313 -980 438
-699 230 -1430 355 -2355 403 -298 16 -1250 16 -1490 1 -656 -42 -1139 -130
-1592 -288 -616 -216 -743 -253 -1043 -308 -344 -63 -407 -65 -1510 -55 -453
4 -530 7 -561 21 -50 22 -63 61 -49 157 6 45 7 87 1 113 -11 49 -1 75 35 88
16 6 102 6 232 0 364 -18 1080 -24 1267 -11 366 26 561 66 948 195 925 311
1847 492 2772 546 105 6 215 12 245 14 147 10 1011 -4 1210 -18z m-1571 -602
c23 -16 23 -18 20 -188 -1 -94 1 -196 5 -226 7 -48 5 -58 -14 -82 -42 -54
-215 -87 -279 -54 -66 34 -82 93 -86 313 -4 178 -3 184 19 209 28 33 69 41
206 43 83 1 111 -3 129 -15z m1816 -73 c96 -44 116 -99 123 -331 5 -209 3
-214 -91 -231 -109 -19 -224 12 -270 73 -22 30 -23 46 -19 306 3 204 1 202
130 202 63 0 98 -5 127 -19z m-3640 -175 c21 -21 23 -30 17 -58 -8 -36 -8 -77
-1 -235 4 -91 2 -104 -17 -130 -38 -50 -79 -67 -180 -71 -133 -6 -129 -13
-129 219 1 159 3 190 18 212 34 53 115 85 215 86 43 1 57 -3 77 -23z m5325
-177 c99 -30 152 -60 175 -99 18 -32 20 -55 23 -253 5 -296 6 -295 -158 -220
-41 18 -85 44 -98 56 -50 46 -51 56 -45 311 5 211 8 236 22 231 9 -4 45 -15
81 -26z m-2735 -269 c801 -43 1571 -146 2320 -311 216 -47 237 -54 260 -79 16
-18 16 -19 -6 -24 -112 -26 -674 -109 -884 -132 -211 -22 -573 -23 -805 -1
-310 29 -680 40 -1385 41 -711 1 -823 -3 -1245 -45 -524 -51 -1024 -146 -1530
-289 -385 -108 -780 -186 -1240 -244 -329 -42 -637 -69 -800 -70 -139 -1 -159
1 -195 20 -73 38 -105 146 -121 404 -7 116 4 157 49 182 16 9 127 14 397 19
632 12 839 41 1601 228 522 128 660 155 1019 201 425 53 919 93 1370 110 257
10 929 4 1195 -10z m636 -749 c16 -13 21 -23 14 -29 -5 -5 -113 -35 -240 -66
-758 -187 -1611 -452 -2450 -761 -115 -43 -216 -78 -224 -79 -11 -1 -18 22
-27 88 -17 113 -38 155 -89 181 -37 19 -58 20 -295 18 -449 -4 -1188 -52
-1257 -83 -64 -28 -77 -56 -68 -143 4 -40 10 -117 14 -172 3 -55 10 -105 14
-112 21 -33 73 -32 605 13 290 24 541 44 557 44 26 -1 19 -7 -50 -45 -44 -25
-154 -79 -245 -121 -91 -42 -250 -119 -355 -170 -281 -138 -412 -175 -691
-196 -270 -19 -355 1 -356 87 -3 153 16 867 24 898 12 51 51 73 142 82 364 34
743 108 1416 275 381 95 650 153 850 185 389 61 797 98 1315 118 39 2 363 4
721 5 631 2 653 1 675 -17z m7061 -441 c124 -250 141 -532 48 -809 -64 -190
-142 -334 -325 -601 -413 -600 -855 -1161 -1795 -2275 -670 -795 -790 -941
-790 -964 0 -25 -28 -40 -40 -21 -11 18 14 69 216 435 545 991 1224 2144 1897
3225 259 415 676 1071 695 1093 27 31 46 15 94 -83z"/>
<path d="M10091 14836 c-7 -8 -13 -48 -14 -90 -2 -64 1 -78 18 -95 27 -26 665
-281 704 -281 9 0 22 5 29 12 18 18 15 92 -5 117 -12 13 -99 51 -241 103 -290
106 -291 111 -13 113 200 0 203 1 222 24 25 30 24 66 -1 91 -19 19 -33 20
-354 20 -275 0 -336 -2 -345 -14z"/>
<path d="M11290 14843 c-22 -9 -30 -24 -30 -60 0 -53 19 -63 128 -65 53 -1
152 -1 220 1 116 3 122 2 122 -16 0 -17 -35 -33 -212 -99 -238 -88 -264 -104
-255 -161 9 -51 34 -76 72 -70 29 5 565 220 612 245 33 18 53 64 53 122 0 51
-12 88 -34 102 -13 9 -654 9 -676 1z"/>
<path d="M15110 14249 c-78 -14 -168 -59 -218 -110 -54 -55 -113 -172 -137
-270 -10 -40 -20 -77 -24 -80 -3 -4 -46 2 -96 13 -130 28 -380 35 -507 14
-115 -19 -235 -55 -338 -102 -96 -44 -240 -135 -240 -151 0 -26 54 -26 164 0
187 44 252 51 451 51 202 0 300 -13 485 -61 176 -46 178 -46 205 -29 25 16 29
28 64 181 56 244 214 414 470 506 54 19 60 24 42 31 -35 13 -261 18 -321 7z"/>
<path d="M5603 14131 c-28 -4 -55 -9 -58 -13 -3 -3 18 -14 47 -23 94 -30 250
-111 341 -176 114 -81 249 -223 332 -349 77 -117 92 -125 162 -86 135 74 229
118 320 149 242 85 523 113 849 86 71 -5 167 -9 214 -7 l85 3 -76 37 c-218
104 -488 156 -754 145 -182 -8 -337 -33 -415 -67 -184 -80 -245 -65 -406 95
-79 79 -109 102 -187 140 -134 65 -281 87 -454 66z"/>
<path d="M19930 10834 c0 -4 36 -60 81 -126 94 -138 132 -216 155 -313 25
-110 28 -117 45 -128 12 -8 37 -4 92 12 111 33 230 42 408 31 196 -12 369 -13
369 -1 0 12 -229 86 -330 107 -68 14 -117 16 -248 11 -188 -7 -184 -8 -221 93
-27 75 -91 170 -144 216 -61 52 -207 121 -207 98z"/>
<path d="M17145 8784 c-513 -27 -1267 -100 -2045 -199 -1566 -200 -3136 -589
-4628 -1146 -345 -129 -732 -283 -782 -310 -36 -21 -88 -85 -77 -96 4 -3 278
70 609 162 755 210 871 241 1195 321 1355 332 2845 567 4478 704 729 61 1003
72 1255 50 248 -21 568 -62 631 -80 162 -48 235 -193 195 -389 -25 -121 -63
-220 -189 -491 -360 -772 -642 -1465 -914 -2245 -106 -306 -173 -517 -173
-549 0 -36 21 -99 30 -90 5 5 34 70 65 144 169 402 430 939 841 1730 398 768
639 1263 814 1675 249 589 201 732 -270 791 -111 14 -858 27 -1035 18z"/>
<path d="M7045 7509 c-176 -194 -225 -288 -225 -433 0 -71 12 -142 25 -154 10
-10 187 180 240 257 66 96 89 167 89 276 1 91 -9 165 -22 164 -4 0 -52 -50
-107 -110z"/>
<path d="M15360 7445 c-227 -33 -446 -98 -623 -185 -136 -66 -330 -194 -385
-254 -24 -26 -56 -73 -70 -104 -24 -50 -27 -69 -27 -163 0 -101 1 -108 38
-181 44 -90 113 -158 184 -182 71 -24 175 -20 326 13 72 16 204 44 292 61 234
46 393 87 455 117 119 57 226 204 266 363 23 92 15 263 -16 345 -33 88 -98
149 -170 163 -94 18 -182 20 -270 7z m248 -222 c52 -37 72 -96 73 -215 1 -126
-15 -173 -78 -229 -54 -49 -122 -73 -298 -104 -82 -14 -183 -34 -226 -45 -98
-25 -142 -25 -195 1 -80 38 -137 163 -115 246 22 82 80 139 226 222 206 118
531 184 613 124z"/>
<path d="M13493 6940 c-265 -27 -522 -121 -763 -278 -178 -116 -235 -204 -228
-357 6 -135 80 -260 182 -306 56 -25 183 -25 284 1 43 10 160 35 262 55 369
72 483 110 559 184 60 58 79 111 92 256 22 243 -18 388 -118 428 -50 20 -169
27 -270 17z m197 -198 c49 -27 71 -77 77 -175 7 -106 -7 -157 -56 -206 -50
-50 -90 -63 -360 -116 -237 -47 -264 -48 -320 -9 -32 23 -71 110 -71 162 0 88
41 138 178 221 188 113 458 173 552 123z"/>
<path d="M6530 6833 c-157 -167 -196 -252 -188 -410 3 -52 8 -96 12 -100 6 -7
123 115 187 196 20 25 49 71 65 101 27 51 29 63 29 167 0 69 -4 116 -11 123
-8 8 -33 -13 -94 -77z"/>
<path d="M11765 6414 c-262 -36 -511 -131 -708 -270 -121 -85 -165 -170 -153
-293 13 -144 102 -252 221 -266 59 -8 63 -7 365 54 242 49 337 74 392 102 54
27 131 101 162 153 58 100 72 241 36 359 -24 78 -56 119 -107 140 -40 16 -158
27 -208 21z m168 -174 c35 -28 50 -80 51 -175 2 -144 -42 -181 -274 -230 -69
-15 -148 -33 -177 -41 -109 -30 -175 -9 -214 67 -43 85 -23 164 59 224 107 79
238 134 379 159 111 20 146 19 176 -4z"/>
<path d="M8108 6376 c-42 -13 -110 -39 -151 -59 -183 -86 -229 -187 -243 -529
-7 -176 6 -392 32 -530 8 -46 18 -115 21 -155 9 -118 21 -106 -357 -348 -578
-369 -1220 -845 -1943 -1438 -151 -125 -159 -133 -193 -204 -20 -41 -34 -77
-31 -79 3 -3 168 104 368 238 778 521 1093 703 1774 1023 239 112 300 113 354
7 30 -59 34 -95 15 -141 -27 -68 -104 -127 -315 -240 -501 -269 -1099 -608
-1569 -891 -416 -250 -1054 -657 -1185 -756 -76 -57 -196 -174 -179 -174 6 0
274 132 595 293 321 162 672 333 779 382 516 232 959 387 1356 474 173 38 312
63 324 59 5 -2 -92 -79 -216 -172 -123 -93 -224 -172 -224 -177 0 -4 34 6 76
22 294 113 642 171 895 149 258 -22 513 -106 713 -234 32 -20 60 -35 62 -33 2
2 -21 48 -51 103 -378 679 -592 1417 -646 2234 -14 213 -6 714 15 920 8 80 18
175 22 213 8 78 13 76 -98 43z"/>
<path d="M6069 6252 c-46 -48 -97 -113 -114 -143 -27 -49 -30 -62 -30 -149 0
-143 2 -144 89 -50 88 94 131 154 151 211 22 62 18 219 -5 219 -4 0 -45 -40
-91 -88z"/>
<path d="M7399 5942 c-42 -32 -143 -114 -225 -184 -82 -69 -196 -164 -254
-210 -232 -184 -327 -359 -337 -619 -5 -121 9 -279 27 -309 6 -10 25 1 77 46
191 168 462 369 689 511 73 47 136 93 144 107 10 20 12 53 6 143 -6 115 -35
566 -36 571 -1 8 -24 -5 -91 -56z"/>
<path d="M6219 4898 c-211 -127 -362 -254 -455 -385 -106 -147 -147 -285 -147
-491 0 -78 3 -145 6 -149 4 -3 24 7 45 24 223 179 453 347 613 448 35 22 69
51 75 65 9 19 8 79 -3 250 -8 124 -17 242 -21 263 l-7 38 -106 -63z"/>
<path d="M5399 4094 c-7 -9 -81 -67 -165 -129 -212 -159 -279 -243 -305 -383
-11 -57 -5 -182 9 -208 6 -11 51 15 185 105 218 146 309 219 330 264 22 46 21
122 -3 227 -11 47 -20 97 -20 113 0 31 -11 35 -31 11z"/>
<path d="M4599 3356 c-111 -88 -158 -147 -178 -221 -12 -44 -14 -150 -2 -178
6 -16 9 -16 31 9 14 14 69 58 123 96 138 99 177 153 177 244 0 36 -28 134 -38
134 -4 0 -55 -38 -113 -84z"/>
<path d="M4137 2956 c-113 -90 -132 -121 -132 -211 0 -41 3 -77 8 -81 4 -4 17
2 30 14 13 12 54 43 92 69 89 62 115 99 115 169 0 54 -13 105 -27 103 -5 0
-43 -28 -86 -63z"/>
<path d="M4950 1513 c-549 -23 -996 -89 -1590 -233 -301 -73 -547 -119 -770
-144 -658 -74 -1334 -36 -2295 129 -314 54 -306 54 -274 19 36 -39 91 -63 208
-94 59 -15 224 -59 369 -98 1172 -317 2015 -403 3022 -307 461 44 982 129
1388 226 582 139 1035 205 1657 244 143 9 274 20 290 24 29 8 28 9 -45 44 -94
46 -157 62 -345 87 -82 11 -213 29 -290 40 -405 55 -932 80 -1325 63z"/>
<path d="M16520 1361 c-40 -13 -90 -41 -90 -51 0 -6 4 -10 9 -10 18 0 177
-169 232 -246 32 -43 90 -137 129 -209 88 -158 149 -235 238 -302 82 -62 146
-95 260 -132 157 -52 262 -66 512 -65 259 0 339 10 710 84 612 123 995 167
1538 177 223 4 395 2 555 -8 248 -15 426 -17 473 -4 28 7 27 8 -26 27 -305
106 -990 251 -1363 289 -159 15 -613 7 -772 -15 -174 -24 -396 -70 -585 -120
-278 -75 -410 -92 -573 -75 -247 25 -445 133 -622 339 -115 134 -266 246 -414
307 -58 23 -158 30 -211 14z"/>
<path d="M14221 1250 c-147 -12 -310 -38 -367 -57 -69 -23 -147 -77 -176 -121
-97 -148 -127 -188 -188 -246 -151 -142 -360 -229 -735 -304 -472 -95 -838
-121 -1850 -131 l-690 -6 70 -22 c138 -43 444 -123 645 -168 669 -149 1332
-213 1932 -187 684 31 845 88 1044 369 219 308 500 497 884 592 164 40 288 58
534 76 175 13 442 49 455 61 2 2 2 6 0 8 -13 14 -574 97 -809 121 -184 19
-603 27 -749 15z"/>
</g>
</svg>
